REM MD5 42966f37ae3293de0cc45d44a9dac8a1
FILE "Euro Demo 12 (France).bin" BINARY
  TRACK 01 MODE2/2352
    INDEX 01 00:00:00
  TRACK 02 AUDIO
    INDEX 00 13:01:64
    INDEX 01 13:03:64
  TRACK 03 AUDIO
    INDEX 00 18:37:62
    INDEX 01 18:39:62
  TRACK 04 AUDIO
    INDEX 00 23:35:38
    INDEX 01 23:37:38
  TRACK 05 AUDIO
    INDEX 00 24:49:49
    INDEX 01 24:51:49
REM LEADOUT 28:09:04
